<svg xmlns="http://www.w3.org/2000/svg" width="100" height="100" viewBox="0 0 100 100">
  <g id="Group_1" data-name="Group 1" transform="translate(-263 -168)">
    <g id="Path_1" data-name="Path 1" transform="translate(263 168)" fill="none">
      <path d="M50,0A50,50,0,1,1,0,50,50,50,0,0,1,50,0Z" stroke="none"/>
      <path d="M 50 5 C 43.92283630371094 5 38.03010940551758 6.189109802246094 32.48551177978516 8.534271240234375 C 27.12752532958984 10.80050659179688 22.31452941894531 14.04585266113281 18.18019866943359 18.18019866943359 C 14.04585266113281 22.31452941894531 10.80050659179688 27.12752532958984 8.534271240234375 32.48551177978516 C 6.189109802246094 38.03010940551758 5 43.92283630371094 5 50 C 5 56.07716369628906 6.189109802246094 61.96989059448242 8.534271240234375 67.51449584960938 C 10.80050659179688 72.87247467041016 14.04585266113281 77.68547058105469 18.18019866943359 81.81980133056641 C 22.31452941894531 85.95414733886719 27.12752532958984 89.19949340820312 32.48551177978516 91.46572875976562 C 38.03010940551758 93.81089019775391 43.92283630371094 95 50 95 C 56.07716369628906 95 61.96989059448242 93.81089019775391 67.51449584960938 91.46572875976562 C 72.87247467041016 89.19949340820312 77.68547058105469 85.95414733886719 81.81980133056641 81.81980133056641 C 85.95414733886719 77.68547058105469 89.19949340820312 72.87247467041016 91.46572875976562 67.51449584960938 C 93.81089019775391 61.96989059448242 95 56.07716369628906 95 50 C 95 43.92283630371094 93.81089019775391 38.03010940551758 91.46572875976562 32.48551177978516 C 89.19949340820312 27.12752532958984 85.95414733886719 22.31452941894531 81.81980133056641 18.18019866943359 C 77.68547058105469 14.04585266113281 72.87247467041016 10.80050659179688 67.51449584960938 8.534271240234375 C 61.96989059448242 6.189109802246094 56.07716369628906 5 50 5 M 50 0 C 77.61423492431641 0 100 22.38576507568359 100 50 C 100 77.61423492431641 77.61423492431641 100 50 100 C 22.38576507568359 100 0 77.61423492431641 0 50 C 0 22.38576507568359 22.38576507568359 0 50 0 Z" stroke="none"/>
    </g>
    <text id="_20" data-name="20" transform="translate(313 235)" font-size="52" font-family="PTSans-Bold, PT Sans" font-weight="700"><tspan x="-29.484" y="0">20</tspan></text>
  </g>
</svg>
